<?xml version="1.0" encoding="utf-8"?>
<!-- Generator: Adobe Illustrator 15.1.0, SVG Export Plug-In . SVG Version: 6.00 Build 0)  -->
<!DOCTYPE svg PUBLIC "-//W3C//DTD SVG 1.1//EN" "http://www.w3.org/Graphics/SVG/1.1/DTD/svg11.dtd">
<svg version="1.1" id="圖層_1" xmlns="http://www.w3.org/2000/svg" xmlns:xlink="http://www.w3.org/1999/xlink" x="0px" y="0px"
	 width="1274.14px" height="192.086px" viewBox="0 0 1274.14 192.086" enable-background="new 0 0 1274.14 192.086"
	 xml:space="preserve">
<g>
	<path fill="#231815" d="M648.512,98.622c-0.904-0.855-1.794-1.716-2.646-2.571c-0.852-0.851-1.711-1.773-2.576-2.743l-2.822,2.913
		h-59.959c-0.633,0-1.111-0.134-1.452-0.435c-0.349-0.273-0.574-0.647-0.687-1.109c-0.113-0.399-0.148-0.839-0.088-1.326
		c0.056-0.484,0.313-0.918,0.774-1.318c4.737-4.176,9.26-8.424,13.577-12.765c4.299-4.349,8.321-8.656,12.028-12.936h5.135
		c-2.394,2.741-4.647,5.297-6.766,7.664c-2.112,2.367-4.216,4.612-6.334,6.719c-2.118,2.115-4.252,4.18-6.431,6.173
		c-2.158,1.99-4.442,4.028-6.842,6.081h59.527c-2.459-2.745-4.852-5.673-7.195-8.778c-2.338-3.107-4.535-6.556-6.604-10.325h4.371
		c2.631,4.569,5.566,8.781,8.826,12.629c3.25,3.864,6.941,7.902,11.055,12.124h-4.893V98.622z M643.975,138.019
		c-1.586,1.714-3.854,2.579-6.76,2.579h-46.164c-2.521,0-4.489-0.776-5.914-2.318c-1.364-1.49-2.059-3.483-2.059-5.997V116.01
		c0-2.453,0.578-4.479,1.716-6.083c1.366-1.885,3.456-2.819,6.257-2.819h46.164c2.854,0,4.996,0.765,6.422,2.305
		c1.652,1.488,2.479,3.682,2.479,6.598v16.272C646.117,134.677,645.405,136.589,643.975,138.019z M642.178,115.15
		c0-1.372-0.41-2.492-1.238-3.383c-0.832-0.889-1.955-1.322-3.387-1.322h-46.502c-1.32,0-2.311,0.497-2.996,1.496
		c-0.697,0.99-1.035,2.074-1.035,3.205v17.909c0,2.795,1.338,4.199,4.027,4.199h46.502c1.314,0,2.412-0.381,3.303-1.121
		c0.887-0.748,1.32-1.775,1.32-3.08L642.178,115.15L642.178,115.15z"/>
	<path fill="#231815" d="M675.456,119.046c-0.609,2.603-1.289,5.045-2.051,7.325c-0.779,2.28-1.664,4.492-2.664,6.632
		c-0.994,2.142-2.178,4.351-3.553,6.641h-4.371c1.479-2.516,2.754-4.852,3.813-7.025c1.059-2.167,1.999-4.366,2.824-6.595
		c0.834-2.233,1.545-4.599,2.139-7.106c0.607-2.514,1.193-5.366,1.758-8.563h3.861C676.643,113.557,676.053,116.451,675.456,119.046
		z M673.352,104.875c-1.826-2.577-3.554-5.324-5.179-8.266c-1.629-2.941-3.214-6.318-4.753-10.148h4.028
		c0.626,1.708,1.276,3.327,1.964,4.839c0.681,1.517,1.455,3.013,2.316,4.494c0.856,1.486,1.795,2.957,2.82,4.422
		c1.029,1.444,2.203,3.009,3.514,4.667h-4.711V104.875z M673.874,82.86c-1.828-2.28-3.561-4.807-5.189-7.571
		c-1.629-2.77-3.29-6.039-5.012-9.82h3.941c0.801,1.727,1.573,3.31,2.317,4.761c0.736,1.455,1.522,2.866,2.355,4.242
		c0.823,1.373,1.768,2.731,2.819,4.069c1.064,1.342,2.27,2.787,3.642,4.323h-4.874V82.86z M683.729,98.541
		c-0.58,1.932-1.205,3.674-1.892,5.222h-3.005c0.857-1.947,1.558-3.844,2.104-5.701c0.541-1.856,0.975-3.84,1.322-5.943h2.823
		C684.751,94.451,684.292,96.593,683.729,98.541z M696.135,89.115c-0.227-0.4-0.436-0.808-0.643-1.243
		c-0.191-0.426-0.379-0.875-0.558-1.324l-1.882,1.97H682.69c-0.736,0-1.252-0.368-1.539-1.112c-0.173-0.4-0.242-0.82-0.211-1.239
		c0.021-0.436,0.175-0.792,0.474-1.077c1.249-1.253,2.405-2.438,3.46-3.553c1.063-1.114,2.072-2.299,3.047-3.554h-5.485
		c-0.462,0-0.835-0.139-1.112-0.39c-0.285-0.251-0.489-0.552-0.6-0.896c-0.115-0.287-0.172-0.602-0.172-0.938
		c0-0.353,0.112-0.631,0.336-0.867c0.802-0.791,1.532-1.556,2.195-2.269c0.648-0.716,1.249-1.393,1.791-2.054
		c0.539-0.657,1.073-1.325,1.588-2.012c0.512-0.687,1.023-1.401,1.546-2.142h3.337c-1.191,1.766-2.412,3.323-3.639,4.663
		c-1.229,1.351-2.586,2.76-4.064,4.24h6.248c0.626-0.8,1.231-1.592,1.846-2.395c0.594-0.8,1.199-1.677,1.832-2.653h3.598
		c-1.942,2.966-3.91,5.64-5.905,8.003c-1.999,2.37-4.351,4.894-7.034,7.583h10.544c-0.915-2.115-1.58-4.283-1.978-6.51h2.83
		c0.335,1.714,0.809,3.347,1.418,4.925c0.59,1.575,1.322,3.173,2.175,4.84h-3.081v0.004H696.135z M734.083,138.957
		c-1.256,1.088-3.025,1.639-5.308,1.639h-31.862l-1.455-2.747h32.881c1.086,0,1.957-0.27,2.612-0.808
		c0.657-0.551,0.989-1.335,0.989-2.362v-2.052c0-0.907-0.355-1.644-1.07-2.188c-0.723-0.541-1.553-0.81-2.531-0.81h-39.311
		c-1.945,0-3.459-0.487-4.534-1.461c-0.453-0.455-0.804-1.01-1.031-1.673c-0.222-0.655-0.265-1.461-0.083-2.433l0.677-3.682
		c0.171-0.916,0.636-1.718,1.372-2.396c0.855-0.698,2.144-1.035,3.861-1.035h37.342c0.91,0,1.652-0.287,2.23-0.856
		c0.564-0.563,0.855-1.347,0.855-2.316v-1.536c0-0.914-0.291-1.656-0.855-2.232c-0.576-0.574-1.318-0.852-2.23-0.852h-44.373v-2.664
		h44.711c2,0,3.596,0.463,4.797,1.374c1.203,0.914,1.807,2.265,1.807,4.022v2.229c0,1.724-0.635,3.064-1.895,4.03
		c-1.201,1.025-2.767,1.54-4.709,1.54h-36.905c-0.464,0-0.89,0.138-1.287,0.436c-0.399,0.28-0.661,0.627-0.771,1.029l-0.608,2.996
		c-0.164,0.852-0.025,1.532,0.436,2.006c0.453,0.49,1.168,0.734,2.145,0.734h38.798c1.025,0,1.985,0.112,2.87,0.338
		c0.883,0.224,1.643,0.602,2.267,1.11c1.249,0.979,1.88,2.518,1.88,4.632v1.532C735.792,136.453,735.22,137.932,734.083,138.957z
		 M689.118,103.763c-0.119-0.687-0.24-1.532-0.387-2.521c-0.15-1.012-0.287-2.045-0.425-3.136c-0.141-1.081-0.264-2.157-0.351-3.211
		c-0.085-1.057-0.127-1.983-0.127-2.774h2.574c0,0.791,0.057,1.722,0.164,2.774c0.122,1.054,0.247,2.13,0.392,3.211
		c0.139,1.091,0.303,2.126,0.472,3.136c0.168,0.989,0.338,1.835,0.512,2.521H689.118z M695.458,103.763
		c-0.348-1.65-0.688-3.603-1.027-5.831c-0.348-2.233-0.633-4.161-0.865-5.812h2.831c0.228,1.824,0.536,3.844,0.94,6.072
		c0.397,2.229,0.764,4.078,1.112,5.57H695.458z M699.052,73.614v-2.745h9.169c-0.975-1.43-1.954-2.962-2.908-4.624h3.246
		c0.339,0.637,0.809,1.382,1.414,2.272c0.594,0.887,1.184,1.666,1.762,2.352h7.955v2.745H699.052z M716.522,102.302
		c-0.854,0.863-2.08,1.289-3.674,1.289h-8.063c-1.425,0-2.536-0.454-3.335-1.376c-0.738-0.852-1.115-1.906-1.115-3.169v-3.427
		c0-1.361,0.396-2.454,1.2-3.248c0.744-0.738,1.825-1.114,3.25-1.114h8.063c1.36,0,2.504,0.336,3.421,1.027
		c0.966,0.861,1.453,1.974,1.453,3.335v3.427C717.72,100.422,717.319,101.498,716.522,102.302z M700.417,80.124v-2.747h17.563v2.747
		H700.417z M700.503,87.832v-2.745h17.477v2.745H700.503z M714.468,95.794c0-0.632-0.203-1.06-0.596-1.322
		c-0.399-0.264-0.854-0.385-1.375-0.385h-6.932c-0.634,0-1.137,0.163-1.507,0.47c-0.372,0.314-0.556,0.781-0.556,1.407v2.997
		c0,1.199,0.625,1.801,1.89,1.801h7.106c1.318,0,1.971-0.627,1.971-1.889v-3.079H714.468z M722.905,98.315
		c-0.549,2.149-1.133,3.899-1.756,5.275h-2.906c0.675-1.542,1.322-3.369,1.914-5.483c0.609-2.106,1.106-4.161,1.506-6.162h2.736
		C723.954,94.052,723.449,96.176,722.905,98.315z M735.542,89.028c-0.23-0.462-0.448-0.919-0.635-1.366
		c-0.211-0.461-0.419-0.923-0.645-1.376l-1.974,2.057h-10.281c-0.802,0-1.342-0.432-1.619-1.294
		c-0.124-0.327-0.164-0.713-0.145-1.112c0.044-0.393,0.196-0.732,0.479-1.027c1.314-1.364,2.471-2.611,3.468-3.724
		c0.999-1.116,1.958-2.213,2.87-3.294h-5.301c-0.471,0-0.832-0.139-1.121-0.436c-0.287-0.279-0.486-0.59-0.6-0.938
		c-0.124-0.278-0.174-0.594-0.174-0.938c0-0.351,0.123-0.63,0.349-0.857c1.593-1.548,2.941-2.995,4.022-4.335
		c1.074-1.338,2.111-2.696,3.076-4.063h3.343c-1.198,1.716-2.417,3.262-3.682,4.673c-1.259,1.396-2.629,2.837-4.113,4.317h6.18
		c0.626-0.8,1.253-1.607,1.874-2.435c0.634-0.827,1.293-1.758,1.976-2.783h3.251c-1.879,2.679-3.771,5.237-5.691,7.664
		c-1.912,2.427-4.213,5.067-6.895,7.918h10.531c-0.455-0.966-0.871-1.976-1.246-3.036c-0.371-1.062-0.721-2.186-1.068-3.387h2.666
		c0.449,1.712,1.01,3.339,1.659,4.883c0.651,1.54,1.477,3.167,2.446,4.881h-3v0.009H735.542z M728.599,103.591
		c-0.112-0.689-0.247-1.532-0.38-2.522c-0.141-1.001-0.289-2.046-0.434-3.135c-0.143-1.079-0.258-2.152-0.343-3.199
		c-0.077-1.063-0.134-1.985-0.134-2.789h2.489c0,0.8,0.058,1.723,0.177,2.789c0.104,1.052,0.245,2.12,0.382,3.199
		c0.14,1.089,0.295,2.134,0.471,3.135c0.173,0.99,0.353,1.833,0.513,2.522H728.599z M735.456,103.591
		c-0.522-1.998-0.948-3.983-1.287-5.952c-0.346-1.97-0.598-3.868-0.773-5.695h2.742c0.176,1.883,0.436,3.909,0.766,6.075
		c0.348,2.173,0.773,4.026,1.293,5.57h-2.74V103.591z"/>
	<path fill="#231815" d="M767.267,137.977c-3.053,1.056-6.01,1.869-8.864,2.449h-9.846c2.057-0.522,4.135-1.081,6.26-1.671
		c2.104-0.602,4.133-1.205,6.076-1.804c1.934-0.6,3.701-1.195,5.305-1.807c1.6-0.59,2.908-1.146,3.943-1.669h6.592
		C773.476,135.426,770.327,136.926,767.267,137.977z M815.27,91.17v2.306c0,2.001-0.624,3.637-1.885,4.892
		c-0.631,0.573-1.344,1.029-2.142,1.369c-0.802,0.337-1.681,0.511-2.646,0.511h-45.485c-2.051,0-3.66-0.623-4.792-1.878
		c-1.263-1.15-1.89-2.675-1.89-4.63V91.17h-7.799v-2.744h7.799v-2.14c0-1.943,0.625-3.537,1.89-4.798
		c1.253-1.261,2.845-1.891,4.792-1.891h45.485c1.882,0,3.421,0.522,4.622,1.548c1.365,1.204,2.049,2.854,2.049,4.963v2.313h7.717
		v2.744h-7.717v0.004H815.27z M817.757,83.969v-5.895c0-1.152-0.337-2.126-1.027-2.928c-0.678-0.794-1.619-1.193-2.819-1.193
		h-55.421c-1.206,0-2.145,0.409-2.821,1.247c-0.692,0.827-1.033,1.813-1.033,2.953v5.823h-3.94v-4.965
		c0-1.947,0.479-3.628,1.452-5.053c1.257-1.831,3.232-2.742,5.915-2.742H784.1c-0.634-0.681-1.188-1.425-1.671-2.232
		c-0.487-0.8-0.933-1.683-1.332-2.65h4.03c0.461,0.968,0.966,1.835,1.539,2.606c0.574,0.778,1.166,1.536,1.808,2.272h25.94
		c2.35,0,4.21,0.769,5.57,2.316c1.154,1.429,1.712,3.254,1.712,5.484v4.959h-3.938v-0.004H817.757z M813.74,129.107
		c-1.38,1.263-3.205,1.888-5.485,1.888h-44.196c-1.197,0-2.294-0.162-3.302-0.511c-1-0.34-1.809-0.889-2.435-1.629
		c-1.199-1.313-1.804-3.054-1.804-5.22v-12.082c0-2.276,0.572-4.042,1.715-5.309c1.311-1.364,3.229-2.051,5.738-2.051h44.194
		c2.173,0,3.94,0.546,5.309,1.627c1.483,1.203,2.229,3.084,2.229,5.657v12.236C815.706,126.114,815.05,127.913,813.74,129.107z
		 M784.012,82.267h-20.637c-0.861,0-1.572,0.282-2.134,0.854c-0.58,0.574-0.865,1.343-0.865,2.318v2.995h23.636V82.267
		L784.012,82.267z M784.012,91.17h-23.634v3.341c0,0.966,0.281,1.732,0.861,2.272c0.563,0.538,1.302,0.808,2.219,0.808h20.556V91.17
		H784.012z M811.77,110.702c0-1.088-0.332-2.003-0.994-2.743c-0.648-0.748-1.635-1.116-2.951-1.116h-43.416
		c-2.629,0-3.947,1.29-3.947,3.857v1.538h51.309V110.702z M811.77,114.804h-51.309v5.487h51.309V114.804z M760.46,122.769v1.719
		c0,1.199,0.383,2.147,1.106,2.828c0.751,0.68,1.692,1.023,2.841,1.023h43.672c1.027,0,1.9-0.344,2.609-1.023
		c0.716-0.681,1.08-1.629,1.08-2.828v-1.719H760.46z M810.525,83.117c-0.548-0.57-1.296-0.854-2.271-0.854h-20.299v6.163h23.381
		v-3.167C811.337,84.408,811.069,83.695,810.525,83.117z M811.337,91.17h-23.381v6.423h20.389c0.803,0,1.494-0.287,2.098-0.861
		c0.598-0.565,0.895-1.34,0.895-2.308V91.17L811.337,91.17z M815.874,140.42c-2.856-0.574-5.902-1.495-9.163-2.785
		c-3.254-1.289-6.36-2.673-9.341-4.159h6.859c2.736,1.201,5.955,2.386,9.635,3.557c3.678,1.181,7.58,2.297,11.689,3.388H815.874
		L815.874,140.42z"/>
	<path fill="#231815" d="M834.382,79.861v-3.252h11.903c-0.523-1.6-1.023-3.298-1.5-5.102c-0.482-1.791-0.902-3.497-1.251-5.089
		h4.284c0.348,1.716,0.785,3.437,1.332,5.179c0.548,1.737,1.121,3.412,1.756,5.016h9.681v3.254H834.38v-0.006H834.382z
		 M836.608,104.532v-3.343h21.833v3.343H836.608z M836.774,91.771v-3.254h21.831v3.254H836.774z M857.332,138.533
		c-1.488,1.367-3.489,2.066-6.001,2.066h-6.245c-2.981,0-5.174-0.891-6.599-2.664c-1.146-1.366-1.715-3.278-1.715-5.732v-9.855
		c0-2.394,0.57-4.308,1.715-5.734c1.373-1.655,3.517-2.49,6.421-2.49h6.6c1.48,0,2.751,0.214,3.809,0.646
		c1.053,0.436,1.928,1.045,2.614,1.843c1.142,1.313,1.702,3.2,1.702,5.657v9.764C859.636,134.823,858.873,136.997,857.332,138.533z
		 M855.793,121.658c0-1.308-0.377-2.329-1.115-3.082c-0.746-0.74-1.779-1.118-3.086-1.118h-6.416c-1.324,0-2.399,0.37-3.255,1.083
		c-0.859,0.713-1.291,1.75-1.291,3.117v11.314c0,1.309,0.359,2.35,1.069,3.118c0.717,0.781,1.732,1.164,3.039,1.164h7.365
		c1.037,0,1.898-0.398,2.618-1.206c0.711-0.798,1.071-1.712,1.071-2.741V121.658L855.793,121.658z M882.332,76.095
		c-0.965,2.454-1.947,4.69-2.951,6.729c-0.997,2.02-2.094,3.975-3.299,5.867c-1.372,2.167-2.918,4.299-4.662,6.38
		c-1.74,2.076-3.844,4.376-6.301,6.89h-5.56c2.569-2.337,4.761-4.509,6.589-6.504c1.824-1.997,3.467-3.998,4.89-6.006
		c-1.147-1.595-2.298-3.406-3.47-5.427c-1.176-2.037-2.238-4.197-3.215-6.473h3.768c0.694,1.486,1.437,2.961,2.273,4.414
		c0.826,1.452,1.773,2.872,2.871,4.239c1.136-1.829,2.15-3.689,3.039-5.605c0.875-1.918,1.721-3.951,2.526-6.13
		c0.281-0.688,0.2-1.313-0.257-1.881c-0.461-0.57-1.174-0.861-2.143-0.861h-13.018v-3.341h12.668c1.48,0,2.739,0.164,3.727,0.479
		c1.006,0.313,1.723,0.782,2.191,1.41c0.396,0.627,0.663,1.464,0.804,2.521C882.95,73.859,882.798,74.956,882.332,76.095z
		 M862.127,139.568v-2.999h24.574c1.605-1.995,3.094-4.145,4.46-6.425c1.372-2.29,2.397-4.57,3.079-6.849h3.777
		c-0.972,2.628-2.045,5.008-3.221,7.146c-1.166,2.14-2.49,4.181-3.977,6.124h18.932v3.001h-47.625V139.568z M901.431,118.755
		c-1.188,1.199-2.789,1.789-4.787,1.789h-22.789c-1.877,0-3.482-0.59-4.793-1.789c-1.365-1.255-2.055-2.91-2.055-4.973v-5.309
		c0-0.962,0.168-1.854,0.511-2.656c0.351-0.798,0.802-1.517,1.382-2.142c1.299-1.311,2.992-1.968,5.045-1.968h22.611
		c1.936,0,3.599,0.63,4.967,1.883c0.629,0.627,1.116,1.32,1.455,2.1c0.348,0.771,0.521,1.667,0.521,2.692v5.486
		C903.5,115.756,902.805,117.377,901.431,118.755z M899.553,108.296c0-0.967-0.313-1.802-0.944-2.479
		c-0.623-0.688-1.512-1.031-2.645-1.031h-21.417c-1.14,0-2.026,0.343-2.655,1.031c-0.627,0.681-0.941,1.512-0.941,2.479v5.661
		c0,0.914,0.281,1.729,0.855,2.435c0.572,0.721,1.479,1.066,2.741,1.066h21.417c1.033,0,1.881-0.295,2.563-0.889
		c0.698-0.602,1.025-1.44,1.025-2.533V108.296L899.553,108.296z M877.802,134.337c-1.316-1.766-2.516-3.558-3.597-5.353
		c-1.086-1.801-1.963-3.643-2.658-5.53h4.024c0.74,2.066,1.694,4.014,2.874,5.875c1.166,1.845,2.355,3.516,3.557,5.006h-4.2V134.337
		z M875.496,93.913v-2.999h19.356v2.999H875.496z M905.381,101.189c-2.178-1.829-4.227-3.909-6.158-6.251
		c-1.953-2.342-3.746-4.881-5.405-7.625c-1.997-3.308-3.741-6.754-5.224-10.322c-1.49-3.567-2.688-7.151-3.591-10.75h3.931
		c1.023,3.769,2.313,7.427,3.851,10.97c1.604-1.37,3.102-2.953,4.499-4.763c1.396-1.793,2.563-3.412,3.464-4.838h4.286
		c-0.682,1.097-1.459,2.245-2.346,3.477c-0.893,1.223-1.815,2.406-2.791,3.557c-0.973,1.142-1.942,2.207-2.906,3.2
		c-0.972,1.01-1.867,1.881-2.664,2.619c0.524,1.031,1.061,2.057,1.635,3.082c0.563,1.027,1.168,2.027,1.795,3.005
		c1.479-1.322,2.857-2.785,4.104-4.414c1.256-1.627,2.283-3.098,3.084-4.414h4.289c-1.256,2.055-2.757,4.15-4.498,6.303
		c-1.744,2.138-3.415,3.948-5.015,5.427c3.028,4.343,6.546,8.255,10.538,11.734h-4.877V101.189z"/>
	<path fill="#231815" d="M968.849,109.246v4.96h12.672c2.518,0,4.402,0.605,5.651,1.806c1.479,1.313,2.23,3.277,2.23,5.908v10.792
		c0,2.682-0.711,4.681-2.142,5.995c-1.37,1.196-3.254,1.806-5.653,1.806h-48.654c-2.331,0-4.163-0.524-5.483-1.548
		c-1.531-1.255-2.305-3.28-2.305-6.077V122.35c0-2.617,0.686-4.658,2.056-6.083c1.309-1.368,3.227-2.057,5.732-2.057h12.849
		c0.4-1.425,0.609-3.08,0.609-4.958h-26.305v-2.837h74.177v2.837h-25.435V109.246z M929.447,102.648
		c-2.229,0-3.945-0.545-5.146-1.637c-1.131-1.027-1.703-2.534-1.703-4.537V74.293c0-0.853,0.113-1.679,0.339-2.482
		c0.235-0.799,0.563-1.486,1.029-2.064c1.202-1.532,3.028-2.308,5.483-2.308h29.205v2.745h-28.781c-1.141,0-2.02,0.353-2.655,1.067
		c-0.628,0.719-0.942,1.587-0.942,2.612v22.864c0,0.802,0.32,1.532,0.98,2.189c0.667,0.657,1.533,0.985,2.615,0.985h28.867v2.744
		h-29.291V102.648z M985.462,125.773H971.84c-2.107,0-3.741-0.55-4.871-1.627c-1.38-1.203-2.055-2.896-2.055-5.06v-2.14h-16.363
		c-0.923,2.401-2.133,4.464-3.633,6.206c-1.518,1.745-3.163,3.223-4.931,4.422h-5.399c2.508-1.488,4.615-3.088,6.294-4.807
		c1.679-1.704,3.011-3.651,3.977-5.819h-11.556c-1.316,0-2.352,0.443-3.135,1.33c-0.765,0.887-1.15,1.948-1.15,3.215v8.389h56.444
		V125.773L985.462,125.773z M985.462,132.71h-56.446v1.114c0,1.255,0.399,2.23,1.197,2.907c0.808,0.697,1.771,1.029,2.914,1.029
		h48.052c1.314,0,2.359-0.403,3.124-1.191c0.773-0.804,1.155-1.856,1.155-3.179v-0.679h0.004V132.71z M944.445,86.548
		c-0.748,2.167-1.812,4.04-3.182,5.604c-1.367,1.567-3.143,3.163-5.305,4.757h-5.646c2.795-1.479,5.041-3.082,6.757-4.786
		c1.72-1.725,3.024-3.569,3.947-5.572h-11.228v-2.747h12.08c0.514-1.707,0.713-3.587,0.6-5.646h-6.344
		c-0.396,0.736-0.779,1.401-1.146,1.976c-0.379,0.563-0.787,1.165-1.244,1.793h-3.514c0.91-1.378,1.803-2.924,2.654-4.665
		c0.861-1.744,1.508-3.446,1.978-5.104h3.505c-0.166,0.628-0.348,1.201-0.558,1.714c-0.19,0.511-0.382,1.027-0.56,1.542h18.507
		v2.742H945.9c-0.059,2.064-0.319,3.94-0.771,5.647h12.335v2.749h-13.02V86.548z M952.659,96.819
		c-1.479-0.907-2.905-2.063-4.279-3.469c-1.378-1.394-2.685-2.957-3.933-4.659h3.842c1.255,1.425,2.585,2.811,3.988,4.148
		c1.394,1.339,3.217,2.673,5.432,3.979H952.659z M964.912,109.246h-14.909c0,1.77-0.162,3.42-0.509,4.96h15.418V109.246z
		 M992.57,80.979h-6.685c-1.368,0-2.456-0.438-3.252-1.288c-0.742-0.855-1.112-1.883-1.112-3.082v-4.282
		c0-1.427-0.821-2.144-2.482-2.144h-8.225c-0.683,0-1.243,0.212-1.678,0.646c-0.414,0.426-0.658,0.958-0.715,1.584
		c-0.179,4.233-1.633,7.276-4.373,9.168h-5.053c1.822-1.041,3.232-2.359,4.241-3.99c0.997-1.625,1.522-3.387,1.585-5.266
		c0-1.479,0.452-2.628,1.366-3.43c0.966-0.964,2.251-1.453,3.858-1.453h10.104c1.538,0,2.793,0.401,3.767,1.201
		c0.973,0.796,1.469,1.942,1.469,3.425v4.362c0,0.576,0.175,1.021,0.553,1.334c0.368,0.312,0.833,0.472,1.413,0.472h6.847
		L992.57,80.979z M987.522,103.676c-2.001-0.8-3.969-1.647-5.916-2.577c-1.946-0.903-3.837-1.902-5.649-2.995
		c-3.254,1.952-6.486,3.691-9.68,5.226h-6.938c2.629-1.253,5.033-2.464,7.23-3.64c2.203-1.166,4.302-2.324,6.295-3.46
		c-1.658-1.089-3.332-2.214-5.006-3.39c-1.683-1.174-3.352-2.408-5.012-3.725h5.484c1.252,0.914,2.53,1.803,3.807,2.654
		c1.281,0.854,2.615,1.688,3.982,2.492c1.426-0.863,2.873-1.796,4.331-2.791c1.455-1.01,2.803-2.02,4.063-3.045
		c0.404-0.278,0.545-0.627,0.424-1.029c-0.106-0.399-0.336-0.6-0.675-0.6h-23.636v-2.741h26.892c0.794,0,1.436,0.226,1.918,0.687
		c0.483,0.462,0.784,1.004,0.901,1.631c0.174,0.973-0.204,1.823-1.117,2.567c-3.43,2.629-6.759,5.024-10.016,7.201
		c2.397,1.311,4.979,2.594,7.752,3.845c2.772,1.265,5.869,2.489,9.289,3.688h-8.726V103.676z M984.302,118.066
		c-0.765-0.745-1.73-1.115-2.875-1.115h-12.582v2.314c0,1.195,0.379,2.118,1.153,2.743c0.776,0.63,1.724,0.94,2.866,0.94h12.593
		v-1.791C985.462,119.827,985.076,118.805,984.302,118.066z"/>
	<path fill="#231815" d="M1045.068,125.434v8.478c0,2.23-0.625,3.934-1.876,5.135c-1.204,1.091-2.827,1.629-4.884,1.629h-8.907
		l-2.138-2.914h9.85c1.259,0,2.248-0.336,2.997-1.033c0.74-0.677,1.118-1.678,1.118-2.992v-8.306h-35.721v-3.001h35.721v-4.03
		c3.127-1.077,6.231-2.209,9.295-3.377c3.045-1.164,5.74-2.385,8.092-3.64h-37.438v-2.916h39.828c1.591,0,2.541,0.657,2.828,1.979
		c0.115,0.564,0.022,1.101-0.295,1.619c-0.318,0.519-0.764,0.922-1.344,1.199c-2.906,1.316-5.687,2.542-8.346,3.682
		c-2.654,1.141-5.579,2.288-8.782,3.433v2.053h35.467v2.999h-35.465V125.434z M1076.242,111.639v-5.821
		c0-1.077-0.333-2.027-1.025-2.829c-0.683-0.793-1.594-1.189-2.735-1.189h-59.015c-0.97,0-1.835,0.396-2.608,1.189
		c-0.78,0.802-1.162,1.752-1.162,2.829v5.821h-3.93v-5.561c0-1.259,0.19-2.329,0.599-3.218c0.397-0.889,0.934-1.64,1.633-2.265
		c0.902-0.802,2.138-1.338,3.67-1.635V77.377c0-1.195,0.087-2.28,0.263-3.256c0.173-0.968,0.487-1.792,0.94-2.48
		c0.974-1.592,2.512-2.601,4.63-2.995c0.968-0.172,2.013-0.37,3.124-0.602c1.114-0.224,2.27-0.453,3.476-0.687
		c1.189-0.228,2.367-0.463,3.503-0.687c1.146-0.227,2.168-0.454,3.084-0.68v2.908c-1.65,0.521-3.628,1.018-5.91,1.494
		c-2.276,0.487-4.327,0.871-6.16,1.168c-1.151,0.166-1.985,0.677-2.537,1.532c-0.537,0.859-0.81,1.912-0.81,3.167v2.064h13.707
		v2.828h-13.707v7.364h13.707v2.822h-13.707v7.538h55.168V91.34h-13.88v-2.822h13.88v-7.364h-13.88v-2.828h13.88v-3.769
		c0-1.479-0.399-2.54-1.201-3.169c-0.8-0.628-1.861-0.938-3.167-0.938h-10.368v-2.747h10.958c2.516,0,4.432,0.748,5.746,2.229
		c1.081,1.259,1.629,2.999,1.629,5.218v23.728c1.764,0.233,3.167,0.835,4.19,1.811c1.311,1.307,1.979,3.08,1.979,5.309v5.646h-3.963
		V111.639z M1048.758,96.314c-1.947-1.322-4.054-2.916-6.334-4.809c-1.322,0.979-2.593,1.863-3.807,2.669
		c-1.241,0.799-2.425,1.512-3.563,2.14h-5.566c1.829-1.15,3.606-2.299,5.347-3.475c1.742-1.176,3.448-2.325,5.099-3.476
		c-2.569-2.229-4.94-4.503-7.107-6.845h4.621c0.802,0.8,1.621,1.6,2.447,2.396c0.823,0.8,1.731,1.595,2.693,2.398
		c2.344-1.762,4.171-3.369,5.483-4.79h4.883c-1.084,1.141-2.28,2.314-3.601,3.504c-1.311,1.201-2.706,2.379-4.198,3.516
		c1.43,1.147,2.924,2.28,4.501,3.428c1.578,1.141,3.249,2.255,5.009,3.344H1048.758L1048.758,96.314z M1049.262,79.954
		c-0.962-0.687-1.985-1.429-3.026-2.232c-1.06-0.802-2.155-1.651-3.308-2.575c-1.309,0.979-2.613,1.866-3.897,2.666
		c-1.281,0.804-2.492,1.517-3.641,2.142h-5.482c1.893-1.147,3.709-2.282,5.447-3.428c1.742-1.139,3.377-2.28,4.925-3.427
		c-2.683-2.159-5.113-4.424-7.28-6.762h4.535c0.801,0.802,1.646,1.581,2.531,2.354c0.881,0.768,1.81,1.584,2.775,2.438
		c1.093-0.854,2.09-1.69,3.001-2.482c0.918-0.799,1.72-1.575,2.4-2.312h4.975c-1.099,1.14-2.278,2.286-3.562,3.416
		c-1.278,1.15-2.672,2.293-4.152,3.433c1.479,1.197,3.03,2.355,4.622,3.474c1.598,1.112,3.192,2.22,4.798,3.296H1049.262
		L1049.262,79.954z"/>
	<path fill="#231815" d="M1130.723,125.434v8.478c0,2.23-0.634,3.934-1.893,5.135c-1.197,1.091-2.83,1.629-4.875,1.629h-8.909
		l-2.144-2.914h9.852c1.255,0,2.262-0.336,2.996-1.033c0.751-0.677,1.115-1.678,1.115-2.992v-8.306h-35.707v-3.001h35.707v-4.03
		c3.152-1.077,6.253-2.209,9.297-3.377c3.064-1.164,5.76-2.385,8.092-3.64h-37.421v-2.916h39.822c1.599,0,2.543,0.657,2.818,1.979
		c0.127,0.564,0.021,1.101-0.295,1.619c-0.305,0.519-0.752,0.922-1.322,1.199c-2.914,1.316-5.692,2.542-8.354,3.682
		c-2.656,1.141-5.582,2.288-8.776,3.433v2.053h35.461v2.999h-35.465V125.434z M1161.907,111.639v-5.821
		c0-1.077-0.353-2.027-1.035-2.829c-0.687-0.793-1.598-1.189-2.749-1.189h-59.007c-0.972,0-1.845,0.396-2.608,1.189
		c-0.771,0.802-1.158,1.752-1.158,2.829v5.821h-3.941v-5.561c0-1.259,0.21-2.329,0.608-3.218c0.394-0.889,0.941-1.64,1.619-2.265
		c0.91-0.802,2.144-1.338,3.689-1.635V77.377c0-1.195,0.087-2.28,0.251-3.256c0.168-0.968,0.479-1.792,0.942-2.48
		c0.966-1.592,2.51-2.601,4.618-2.995c0.976-0.172,2.022-0.37,3.135-0.602c1.113-0.224,2.259-0.453,3.463-0.687
		c1.199-0.228,2.367-0.463,3.519-0.687c1.141-0.227,2.162-0.454,3.078-0.68v2.908c-1.646,0.521-3.616,1.018-5.908,1.494
		c-2.29,0.487-4.341,0.871-6.174,1.168c-1.141,0.166-1.981,0.677-2.525,1.532c-0.537,0.859-0.808,1.912-0.808,3.167v2.064h13.709
		v2.828h-13.709v7.364h13.709v2.822h-13.709v7.538h55.156V91.34h-13.876v-2.822h13.876v-7.364h-13.876v-2.828h13.876v-3.769
		c0-1.479-0.398-2.54-1.208-3.169c-0.787-0.628-1.843-0.938-3.167-0.938h-10.354v-2.747h10.967c2.506,0,4.418,0.748,5.736,2.229
		c1.09,1.259,1.629,2.999,1.629,5.218v23.728c1.764,0.233,3.169,0.835,4.194,1.811c1.313,1.307,1.968,3.08,1.968,5.309v5.646h-3.93
		V111.639z M1134.399,96.314c-1.932-1.322-4.054-2.916-6.334-4.809c-1.309,0.979-2.575,1.863-3.813,2.669
		c-1.222,0.799-2.413,1.512-3.551,2.14h-5.57c1.827-1.15,3.616-2.299,5.36-3.475c1.742-1.176,3.428-2.325,5.087-3.476
		c-2.569-2.229-4.937-4.503-7.11-6.845h4.63c0.806,0.8,1.613,1.6,2.44,2.396c0.824,0.8,1.725,1.595,2.696,2.398
		c2.342-1.762,4.171-3.369,5.483-4.79h4.881c-1.085,1.141-2.282,2.314-3.595,3.504c-1.324,1.201-2.712,2.379-4.192,3.516
		c1.424,1.147,2.924,2.28,4.489,3.428c1.568,1.141,3.238,2.255,5.016,3.344H1134.399L1134.399,96.314z M1134.924,79.954
		c-0.97-0.687-1.985-1.429-3.048-2.232c-1.052-0.802-2.154-1.651-3.29-2.575c-1.322,0.979-2.609,1.866-3.899,2.666
		c-1.287,0.804-2.506,1.517-3.635,2.142h-5.482c1.88-1.147,3.686-2.282,5.43-3.428c1.735-1.139,3.381-2.28,4.923-3.427
		c-2.679-2.159-5.105-4.424-7.272-6.762h4.536c0.804,0.802,1.64,1.581,2.53,2.354c0.889,0.768,1.809,1.584,2.783,2.438
		c1.08-0.854,2.08-1.69,2.992-2.482c0.919-0.799,1.719-1.575,2.409-2.312h4.959c-1.077,1.14-2.261,2.286-3.556,3.416
		c-1.286,1.15-2.67,2.293-4.162,3.433c1.49,1.197,3.034,2.355,4.632,3.474c1.601,1.112,3.204,2.22,4.798,3.296H1134.924
		L1134.924,79.954z"/>
	<path fill="#231815" d="M1247.289,84.321c-2.571-1.489-5.11-3.292-7.616-5.398c-2.52-2.114-4.854-4.167-7.033-6.17
		c-1.138-1.025-2.294-1.722-3.464-2.096c-1.172-0.37-2.643-0.557-4.412-0.557h-20.555c-1.771,0-3.252,0.19-4.416,0.557
		c-1.163,0.374-2.325,1.07-3.462,2.096c-2.171,2.003-4.513,4.056-7.034,6.17c-2.506,2.106-5.054,3.909-7.617,5.398h-5.566
		c3.818-2.577,7.215-4.979,10.152-7.243c2.934-2.255,5.468-4.349,7.575-6.293c1.487-1.425,2.854-2.371,4.105-2.826
		c0.746-0.281,1.552-0.467,2.399-0.554c0.855-0.088,1.866-0.125,2.999-0.125h22.357c1.14,0,2.132,0.037,2.945,0.125
		c0.835,0.087,1.621,0.276,2.367,0.554c1.257,0.451,2.619,1.401,4.107,2.826c2.11,1.944,4.628,4.046,7.569,6.293
		c2.943,2.263,6.33,4.67,10.16,7.243H1247.289z M1245.662,106.502c-1.257,1.196-3.082,1.802-5.482,1.802h-51.819
		c-2.506,0-4.422-0.709-5.736-2.142c-1.145-1.192-1.71-2.883-1.71-5.056v-7.28c0-2.28,0.617-4.054,1.876-5.305
		c1.376-1.255,3.203-1.881,5.483-1.881h51.818c2.287,0,4.092,0.566,5.396,1.706c1.425,1.314,2.14,3.14,2.14,5.487v7.272
		C1247.628,103.501,1246.978,105.305,1245.662,106.502z M1212.26,89.451h-23.99c-1.307,0-2.228,0.4-2.732,1.208
		c-0.522,0.8-0.773,1.773-0.773,2.905v7.712c0,1.324,0.339,2.334,1.025,3.045c0.688,0.714,1.544,1.061,2.571,1.061h23.899V89.451z
		 M1241.466,138.707c-1.257,1.196-3.082,1.806-5.484,1.806h-43.681c-2.452,0-4.366-0.689-5.736-2.057
		c-1.203-1.376-1.801-3.09-1.801-5.145v-11.305c0-2.114,0.623-3.854,1.889-5.222c1.365-1.253,3.222-1.891,5.569-1.891h43.672
		c2.233,0,4.009,0.566,5.31,1.717c1.431,1.313,2.14,3.115,2.14,5.396v11.305C1243.35,135.651,1242.722,137.446,1241.466,138.707z
		 M1239.5,121.746c0-1.206-0.348-2.17-1.029-2.908c-0.687-0.748-1.548-1.112-2.577-1.112h-43.672c-1.322,0-2.234,0.38-2.747,1.148
		c-0.507,0.773-0.768,1.729-0.768,2.872v4.542h50.791v-4.544h0.002V121.746z M1239.5,129.107h-50.793v4.37
		c0,1.378,0.338,2.403,1.025,3.088c0.683,0.689,1.542,1.025,2.573,1.025h43.68c1.149,0,2.021-0.37,2.612-1.112
		c0.602-0.736,0.906-1.742,0.906-3.003v-4.368H1239.5z M1194.7,80.124v-2.838h39.143v2.838H1194.7z M1201.205,102.476
		c-1.025-1.312-2.106-2.838-3.253-4.58c-1.134-1.739-2.219-3.618-3.25-5.613h3.864c0.8,1.658,1.7,3.246,2.731,4.754
		c1.023,1.513,2.367,3.334,4.028,5.439H1201.205L1201.205,102.476z M1243.696,93.561c0-1.251-0.332-2.24-0.993-2.997
		c-0.649-0.734-1.522-1.112-2.608-1.112h-23.89v15.927h23.982c1.144,0,2.017-0.364,2.603-1.114c0.611-0.727,0.911-1.74,0.911-2.995
		v-7.712h-0.005V93.561z M1230.544,97.726c-1.224,1.912-2.409,3.497-3.554,4.753h-4.117c1.604-1.942,2.962-3.69,4.082-5.268
		c1.112-1.576,2.009-3.211,2.691-4.927h3.678C1232.701,94,1231.77,95.81,1230.544,97.726z"/>
</g>
<g>
	<g>
		<path fill="#919093" d="M253.23,141.95V75.854h-24.688V67.01h59.398v8.845h-24.79v66.096H253.23z"/>
		<path fill="#919093" d="M292.974,141.95V67.011h54.183v8.845h-44.262v22.952h41.452v8.792h-41.452v25.507h46.007v8.845
			L292.974,141.95L292.974,141.95z"/>
		<path fill="#919093" d="M356.85,141.95V67.011h28.117c5.723,0,10.311,0.76,13.771,2.276c3.462,1.516,6.171,3.852,8.134,7.002
			c1.958,3.155,2.938,6.451,2.938,9.894c0,3.204-0.871,6.221-2.604,9.047c-1.739,2.83-4.365,5.111-7.872,6.852
			c4.525,1.328,8.014,3.596,10.451,6.797c2.435,3.203,3.654,6.987,3.654,11.347c0,3.51-0.738,6.777-2.222,9.791
			s-3.312,5.339-5.491,6.974c-2.184,1.635-4.919,2.874-8.21,3.708c-3.288,0.837-7.313,1.254-12.085,1.254L356.85,141.95
			L356.85,141.95z M366.77,98.501h16.203c4.398,0,7.549-0.289,9.457-0.868c2.52-0.75,4.419-1.995,5.695-3.732
			c1.281-1.738,1.922-3.919,1.922-6.545c0-2.488-0.602-4.675-1.793-6.567c-1.191-1.891-2.896-3.184-5.109-3.885
			c-2.212-0.698-6.012-1.047-11.396-1.047H366.77V98.501L366.77,98.501z M366.77,133.106h18.657c3.203,0,5.452-0.12,6.747-0.358
			c2.281-0.409,4.188-1.092,5.721-2.043c1.541-0.956,2.799-2.341,3.786-4.164s1.481-3.932,1.481-6.316
			c0-2.794-0.715-5.22-2.146-7.282c-1.433-2.063-3.418-3.512-5.957-4.346c-2.541-0.835-6.189-1.253-10.966-1.253h-17.325
			L366.77,133.106L366.77,133.106z"/>
		<path fill="#919093" d="M421.44,141.95V67.011h14.929l17.737,53.06c1.633,4.946,2.828,8.641,3.578,11.094
			c0.853-2.725,2.177-6.727,3.984-12.012l17.945-52.141h13.342v74.939h-9.563V79.229L461.62,141.95h-8.946l-21.675-63.795v63.795
			H421.44z"/>
		<path fill="#919093" d="M495.382,141.95l28.779-74.939h10.684l30.674,74.939h-11.303l-8.734-22.699h-31.34l-8.23,22.699H495.382z
			 M517.005,111.177h25.407l-7.821-20.752c-2.385-6.305-4.154-11.486-5.314-15.54c-0.952,4.805-2.297,9.574-4.041,14.313
			L517.005,111.177z"/>
	</g>
</g>
<g>
	<polygon fill="#AEA2B9" points="111.382,90.8 42.361,24.509 71.408,182.91 	"/>
	<polygon fill="#3E3478" points="196.048,67.959 71.408,182.91 111.382,90.8 	"/>
	<polygon fill="#5D5594" points="42.361,24.509 111.382,90.8 196.048,67.959 129.508,10.109 	"/>
	<g>
		<polygon fill="#D5DCE2" points="125.979,31.402 148.703,26.797 129.508,10.109 106.604,13.893 		"/>
		<polygon fill="#D5DCE2" points="170.277,45.557 147.707,51.037 173.234,74.113 196.048,67.959 		"/>
		<polygon fill="#D5DCE2" points="119.579,57.867 85.668,66.101 111.382,90.8 144.702,81.81 		"/>
		<polygon fill="#D5DCE2" points="97.801,37.112 78.339,18.563 42.361,24.509 62.854,44.193 		"/>
	</g>
	<path fill="#403C71" d="M38.108,51.474c0,1.556-1.261,2.812-2.815,2.812c-1.549,0-2.804-1.254-2.804-2.812
		c0-1.551,1.255-2.807,2.804-2.807C36.847,48.668,38.108,49.923,38.108,51.474z"/>
	<path fill="#403C71" d="M42.417,73.768c0,1.551-1.262,2.807-2.81,2.807c-1.56,0-2.813-1.256-2.813-2.807
		c0-1.557,1.255-2.804,2.813-2.804C41.156,70.965,42.417,72.211,42.417,73.768z"/>
	<path fill="#403C71" d="M51.219,105.798c0,1.546-1.255,2.805-2.809,2.805s-2.809-1.258-2.809-2.805c0-1.554,1.255-2.81,2.809-2.81
		S51.219,104.244,51.219,105.798z"/>
	<path fill="#403C71" d="M123.041,151.123c0,1.547-1.255,2.811-2.804,2.811c-1.553,0-2.804-1.265-2.804-2.811
		c0-1.559,1.251-2.814,2.804-2.814C121.786,148.309,123.041,149.566,123.041,151.123z"/>
	<path fill="#403C71" d="M189.446,137.08c0,1.548-1.257,2.805-2.809,2.805c-1.549,0-2.813-1.257-2.813-2.805
		c0-1.555,1.264-2.813,2.813-2.813C188.189,134.267,189.446,135.525,189.446,137.08z"/>
	<path fill="#403C71" d="M215.014,131.904c0,2.521-2.043,4.562-4.567,4.562c-2.521,0-4.566-2.041-4.566-4.562
		c0-2.525,2.045-4.571,4.566-4.571C212.971,127.332,215.014,129.378,215.014,131.904z"/>
	<path fill="#403C71" d="M171.559,163.855c0,1.557-1.257,2.812-2.812,2.812c-1.548,0-2.803-1.255-2.803-2.812
		c0-1.551,1.255-2.806,2.803-2.806C170.302,161.05,171.559,162.305,171.559,163.855z"/>
	<path fill="#403C71" d="M24.748,101.019c0,1.089-0.88,1.97-1.969,1.97c-1.085,0-1.969-0.881-1.969-1.97
		c0-1.084,0.884-1.965,1.969-1.965C23.868,99.054,24.748,99.935,24.748,101.019z"/>
	<path fill="#403C71" d="M49.187,158.709c0,1.083-0.877,1.968-1.966,1.968c-1.085,0-1.965-0.885-1.965-1.968
		c0-1.086,0.88-1.969,1.965-1.969C48.31,156.74,49.187,157.624,49.187,158.709z"/>
	<path fill="#403C71" d="M159.224,133.234c0,1.242-1.004,2.25-2.245,2.25s-2.247-1.008-2.247-2.25c0-1.235,1.006-2.246,2.247-2.246
		C158.221,130.988,159.224,131.998,159.224,133.234z"/>
	<path fill="#403C71" d="M181.324,103.641c0,1.245-1.003,2.247-2.242,2.247c-1.242,0-2.245-1.002-2.245-2.247
		c0-1.236,1.003-2.247,2.245-2.247C180.322,101.394,181.324,102.404,181.324,103.641z"/>
	<path fill="#FFFFFF" d="M94.483,56.708l-9.618-8.869l-4.431,0.882l-1.286-1.186l10.646-2.131l1.291,1.186l-4.444,0.893l9.618,8.869
		L94.483,56.708z"/>
	<path fill="#FFFFFF" d="M102.565,55.085L91.664,45.033l9.714-1.944l1.288,1.187l-7.942,1.586l3.346,3.078l7.43-1.479l1.284,1.176
		l-7.438,1.481l3.718,3.429l8.244-1.649l1.288,1.19L102.565,55.085z"/>
	<path fill="#FFFFFF" d="M114.976,52.604l-10.905-10.051l5.041-1.006c1.028-0.209,1.965-0.271,2.801-0.189
		c0.842,0.072,1.671,0.295,2.478,0.643c0.808,0.355,1.463,0.768,1.966,1.222c0.471,0.435,0.75,0.867,0.852,1.31
		c0.104,0.441-0.036,0.845-0.416,1.199c1.002,0.016,1.961,0.195,2.864,0.545c0.898,0.342,1.671,0.797,2.304,1.387
		c0.513,0.473,0.855,0.933,1.026,1.394c0.174,0.457,0.187,0.836,0.036,1.132c-0.155,0.303-0.463,0.557-0.938,0.791
		c-0.459,0.231-1.125,0.43-1.982,0.596L114.976,52.604z M110.432,46.421l2.901-0.582c0.794-0.163,1.314-0.31,1.572-0.456
		c0.341-0.186,0.505-0.428,0.477-0.705c-0.021-0.279-0.229-0.598-0.608-0.947c-0.359-0.332-0.785-0.604-1.275-0.814
		c-0.483-0.213-0.981-0.324-1.479-0.34c-0.5-0.012-1.23,0.074-2.202,0.271l-2.679,0.535L110.432,46.421z M115.469,51.059
		l3.341-0.665c0.575-0.114,0.963-0.213,1.158-0.293c0.354-0.135,0.593-0.293,0.73-0.479c0.135-0.178,0.16-0.413,0.076-0.688
		c-0.09-0.284-0.31-0.581-0.652-0.897c-0.41-0.381-0.888-0.68-1.45-0.899c-0.556-0.229-1.123-0.356-1.702-0.375
		c-0.578-0.021-1.288,0.058-2.146,0.228l-3.108,0.621L115.469,51.059z"/>
	<path fill="#FFFFFF" d="M127.517,50.094l-10.909-10.051l2.673-0.534l10.907,6.478c1.011,0.604,1.764,1.063,2.254,1.36
		c-0.239-0.396-0.587-0.978-1.033-1.748l-4.369-7.646l2.394-0.477l10.902,10.053l-1.71,0.34L129.5,39.46l5.223,9.196l-1.604,0.32
		l-13.173-7.779l9.286,8.556L127.517,50.094z"/>
	<path fill="#FFFFFF" d="M141.727,47.254l-5.743-11.089l1.914-0.384l16.412,8.958l-2.032,0.403l-4.864-2.731l-5.618,1.129
		l1.825,3.34L141.727,47.254z M141.128,42.35l4.56-0.91l-4.423-2.502c-1.347-0.761-2.418-1.396-3.212-1.9
		c0.527,0.681,0.977,1.369,1.36,2.07L141.128,42.35z"/>
	<path fill="#362E72" d="M87.266,158.203c-50.008-17.697-84.01-50.532-75.944-73.332c3.307-9.324,13.146-15.531,27.04-18.389
		C19.807,68.266,6.406,74.922,2.454,86.089c-8.061,22.767,26.153,55.638,76.402,73.425c30.791,10.896,60.457,13.6,80.672,8.825
		C139.968,170.894,114.042,167.691,87.266,158.203z"/>
	<path fill="#725C93" d="M156.507,103.025l-5.126,4.715c12.266,12.615,17.877,25.658,14.059,36.445
		c-3.296,9.33-13.133,15.529-27.029,18.389c18.552-1.78,31.945-8.436,35.898-19.604
		C178.476,131.197,171.317,116.723,156.507,103.025z"/>
	<path fill="#725C93" d="M49.413,58.882c-12.124-0.933-23.106-0.31-32.175,1.834c9.547-1.245,20.638-1.099,32.582,0.468
		L49.413,58.882z"/>
</g>
</svg>
